<?xml version="1.0" encoding="UTF-8"?>
<svg version="1.1" xmlns="http://www.w3.org/2000/svg" width="400" height="140">
<path d="M0 0 C0.75740479 0.00008057 1.51480957 0.00016113 2.29516602 0.00024414 C4.56676767 -0.00191449 6.83786122 -0.01998248 9.109375 -0.0390625 C21.19982264 -0.08746561 32.29735508 0.02596535 41.42773438 8.89257812 C46.42290917 14.43070671 48.16103587 19.01077349 47.98242188 26.49023438 C47.26712091 32.65970521 45.24794835 38.24905541 40.41992188 42.31054688 C39.05867188 43.23867187 39.05867188 43.23867187 37.66992188 44.18554688 C38.72179687 44.68054687 39.77367187 45.17554688 40.85742188 45.68554688 C46.14078581 48.67552363 48.79037071 53.54689339 50.66992188 59.18554688 C51.18602419 66.53007981 51.26975163 72.67816231 47.66992188 79.18554688 C47.37988281 79.85328125 47.08984375 80.52101563 46.79101562 81.20898438 C43.78792111 86.50363882 36.73684628 88.75597545 31.23632812 90.60742188 C23.01549937 92.45929806 14.66896763 92.37185858 6.28344727 92.37084961 C4.21220282 92.37306854 2.1414654 92.39137858 0.0703125 92.41015625 C-1.88938477 92.41305664 -1.88938477 92.41305664 -3.88867188 92.41601562 C-5.07775146 92.42012451 -6.26683105 92.4242334 -7.49194336 92.4284668 C-10.33007813 92.18554688 -10.33007813 92.18554688 -12.33007812 90.18554688 C-12.52350167 87.35930461 -12.59229023 84.63142266 -12.57299805 81.80444336 C-12.57489639 80.93768982 -12.57679474 80.07093628 -12.57875061 79.17791748 C-12.58246472 76.30406742 -12.57174597 73.43046834 -12.56054688 70.55664062 C-12.55935542 68.56649302 -12.55890184 66.57634485 -12.55915833 64.5861969 C-12.55759241 60.41232796 -12.54929389 56.23854466 -12.53588867 52.06469727 C-12.51888768 46.70195174 -12.51507458 41.33930034 -12.51583385 35.97653103 C-12.51556256 31.86659336 -12.51008811 27.75667646 -12.50283241 23.64674568 C-12.49963993 21.66869324 -12.49767699 19.69063843 -12.49693871 17.71258354 C-12.49478188 14.95409977 -12.48605231 12.19571791 -12.4753418 9.43725586 C-12.47579498 8.6117775 -12.47624817 7.78629913 -12.47671509 6.93580627 C-12.4245479 -2.20533832 -7.90674371 0.02666226 0 0 Z M7.66992188 19.18554688 C7.59667019 22.04822254 7.57753982 24.88626587 7.60742188 27.74804688 C7.61193359 28.55435547 7.61644531 29.36066406 7.62109375 30.19140625 C7.6329167 32.18948444 7.65085273 34.1875247 7.66992188 36.18554688 C16.23195367 36.84378699 16.23195367 36.84378699 23.66992188 33.18554688 C26.09018415 31.19727017 26.09018415 31.19727017 25.98242188 27.31054688 C25.9111383 24.5050289 25.71675679 23.272526 24.35742188 20.74804688 C21.24235838 17.86372882 18.08568434 18.04988523 14.04492188 18.06054688 C13.06265625 18.05796875 12.08039063 18.05539063 11.06835938 18.05273438 C8.71767176 17.91548722 8.71767176 17.91548722 7.66992188 19.18554688 Z M7.66992188 53.18554688 C7.64104041 56.49802874 7.62316388 59.81047855 7.60742188 63.12304688 C7.59904297 64.06857422 7.59066406 65.01410156 7.58203125 65.98828125 C7.57880859 66.88740234 7.57558594 67.78652344 7.57226562 68.71289062 C7.56702881 69.54554443 7.56179199 70.37819824 7.55639648 71.23608398 C7.45348895 73.19071485 7.45348895 73.19071485 8.66992188 74.18554688 C14.78493154 74.89532478 21.24816965 74.25749105 26.66992188 71.18554688 C29.12524936 67.46747954 29.3837179 63.51992271 28.66992188 59.18554688 C26.54543917 55.74241974 25.52139546 54.4693714 21.66992188 53.18554688 C19.27501202 53.11584636 16.87824496 53.10106685 14.48242188 53.12304688 C13.21011719 53.13207031 11.9378125 53.14109375 10.62695312 53.15039062 C9.65113281 53.16199219 8.6753125 53.17359375 7.66992188 53.18554688 Z " fill="#FA0202" transform="translate(122.330078125,16.814453125)"/>
<path d="M0 0 C0.87454834 0.00523682 1.74909668 0.01047363 2.65014648 0.01586914 C3.59438477 0.0190918 4.53862305 0.02231445 5.51147461 0.02563477 C6.50469727 0.03401367 7.49791992 0.04239258 8.52124023 0.05102539 C9.51833008 0.05553711 10.51541992 0.06004883 11.54272461 0.06469727 C14.01478872 0.07652532 16.48673541 0.0930069 18.95874023 0.11352539 C20.48220627 2.98713727 22.00197329 5.86269158 23.52124023 8.73852539 C23.93954102 9.52743164 24.3578418 10.31633789 24.78881836 11.12915039 C28.62660208 18.4007406 32.30109375 25.75025455 35.95874023 33.11352539 C35.95350342 32.14938721 35.9482666 31.18524902 35.94287109 30.19189453 C35.92481905 26.62679975 35.91330749 23.06170903 35.90380859 19.49658203 C35.89876884 17.95132773 35.89193704 16.40607823 35.88330078 14.86083984 C35.87121947 12.6442751 35.86550851 10.42777321 35.86108398 8.21118164 C35.8559227 7.51638199 35.85076141 6.82158234 35.84544373 6.10572815 C35.84524747 4.44123209 35.89684895 2.7768704 35.95874023 1.11352539 C37.93993379 -0.86766816 41.69319088 -0.07147872 44.39624023 -0.07397461 C45.09040039 -0.0862207 45.78456055 -0.0984668 46.49975586 -0.11108398 C48.32094924 -0.11637303 50.14160943 -0.00816668 51.95874023 0.11352539 C53.95874023 2.11352539 53.95874023 2.11352539 54.20597839 5.04273987 C54.20455338 6.29658981 54.20312836 7.55043976 54.20166016 8.84228516 C54.2035585 9.53347443 54.20545685 10.2246637 54.20741272 10.9367981 C54.21112389 13.22629055 54.20041261 15.51546729 54.18920898 17.80493164 C54.18801737 19.39151472 54.18756398 20.9780985 54.18782043 22.56468201 C54.18625504 25.89114797 54.17796043 29.2175064 54.16455078 32.54394531 C54.14754702 36.81708194 54.14373679 41.09010045 54.14449596 45.36326694 C54.14422463 48.63939043 54.13874957 51.91548786 54.13149452 55.19160271 C54.12830298 56.76773824 54.12633932 58.34387674 54.12560081 59.92001534 C54.12344314 62.11811526 54.11471188 64.31608747 54.10400391 66.51416016 C54.09828621 68.39374168 54.09828621 68.39374168 54.092453 70.31129456 C53.95874023 73.11352539 53.95874023 73.11352539 52.95874023 74.11352539 C50.36302187 74.48688214 47.81786157 74.76803626 45.20874023 74.98852539 C44.49202148 75.07360352 43.77530273 75.15868164 43.03686523 75.24633789 C39.18230784 75.55810356 37.4070624 75.49237588 34.41113281 72.96069336 C31.98169521 70.14017555 30.40116493 67.58749661 28.76733398 64.25415039 C28.2149707 63.13782227 27.66260742 62.02149414 27.09350586 60.87133789 C26.5334082 59.71375977 25.97331055 58.55618164 25.39624023 57.36352539 C24.83227539 56.22141602 24.26831055 55.07930664 23.68725586 53.90258789 C20.63837745 47.69785288 17.7120005 41.45467437 14.95874023 35.11352539 C14.93368408 36.25942139 14.90862793 37.40531738 14.8828125 38.5859375 C14.78890918 42.82206137 14.68864749 47.05801467 14.58642578 51.29394531 C14.54301204 53.13016786 14.50134185 54.96643247 14.46142578 56.80273438 C14.40387855 59.4364085 14.34014025 62.0698696 14.27514648 64.70336914 C14.25007774 65.94243263 14.25007774 65.94243263 14.22450256 67.20652771 C14.07261194 72.99965368 14.07261194 72.99965368 12.95874023 74.11352539 C10.65175976 74.37601369 8.33726462 74.57393482 6.02124023 74.73852539 C4.7540918 74.83391602 3.48694336 74.92930664 2.18139648 75.02758789 C-1.04125977 75.11352539 -1.04125977 75.11352539 -3.04125977 74.11352539 C-3.06438461 64.61278214 -3.08217557 55.11204851 -3.09307194 45.6112833 C-3.09830046 41.20015535 -3.10539754 36.78904659 -3.11669922 32.37792969 C-3.1275292 28.12451424 -3.13353683 23.8711173 -3.13613701 19.61768913 C-3.13799106 17.99130906 -3.14161129 16.36493005 -3.14698982 14.73855782 C-3.15420175 12.46842346 -3.15525065 10.19836654 -3.15478516 7.92822266 C-3.15700577 6.63360611 -3.15922638 5.33898956 -3.16151428 4.00514221 C-3.00189432 0.16695142 -3.00189432 0.16695142 0 0 Z " fill="#F50504" transform="translate(216.041259765625,28.886474609375)"/>
<path d="M0 0 C3.68435108 3.77588776 6.4173054 7.93537728 8 13 C3.260128 16.40298503 -1.62267113 18.75347149 -7 21 C-11 15.25 -11 15.25 -11 13 C-17.46979787 11.92982157 -17.46979787 11.92982157 -23.875 12.8125 C-29.37704709 18.476372 -30.38661048 25.39246697 -30.4375 33.0625 C-30.32966243 40.35045146 -29.31466032 46.29654349 -25.4375 52.5 C-21.10901273 55.16368447 -15.98864042 55 -11 55 C-11 51.04 -11 47.08 -11 43 C-13.6915625 43.0309375 -13.6915625 43.0309375 -16.4375 43.0625 C-18.29166122 43.0838122 -20.14712498 43.07226502 -22 43 C-23 42 -23 42 -23.1328125 39.09375 C-23.13023437 37.9078125 -23.12765625 36.721875 -23.125 35.5 C-23.12757813 34.3140625 -23.13015625 33.128125 -23.1328125 31.90625 C-23 29 -23 29 -22 28 C-19.85441173 27.91224395 -17.70595579 27.89304781 -15.55859375 27.90234375 C-14.38353271 27.90484131 -13.20847168 27.90733887 -11.99780273 27.90991211 C-10.49290283 27.91901611 -8.98800293 27.92812012 -7.4375 27.9375 C-2.673125 27.958125 2.09125 27.97875 7 28 C7 40.21 7 52.42 7 65 C-5.40535109 71.20267554 -17.05320192 74.83540107 -30.75 70.5 C-37.80438002 67.57526434 -43.76086238 62.8345421 -47.4375 56.0625 C-52.77820728 43.08409686 -53.55650043 25.48719579 -48.26171875 12.4453125 C-44.25184075 4.67384616 -39.13560082 -0.86016633 -31 -4.25 C-20.05051825 -6.98737044 -9.44728762 -6.73388102 0 0 Z " fill="#F90302" transform="translate(329,33)"/>
<path d="M0 0 C0.87760986 -0.00315216 1.75521973 -0.00630432 2.65942383 -0.009552 C3.61357178 -0.00752777 4.56771973 -0.00550354 5.55078125 -0.00341797 C6.52362061 -0.00437469 7.49645996 -0.00533142 8.4987793 -0.00631714 C10.56005925 -0.00699905 12.62134133 -0.00514399 14.68261719 -0.00097656 C17.84965813 0.00437153 21.01655725 -0.00092119 24.18359375 -0.00732422 C26.1809899 -0.00666344 28.17838596 -0.00538228 30.17578125 -0.00341797 C31.1299292 -0.0054422 32.08407715 -0.00746643 33.06713867 -0.009552 C34.38355347 -0.00482376 34.38355347 -0.00482376 35.7265625 0 C36.50298096 0.00079559 37.27939941 0.00159119 38.0793457 0.00241089 C39.86328125 0.12939453 39.86328125 0.12939453 40.86328125 1.12939453 C40.93648288 3.66217103 40.95555694 6.16043371 40.92578125 8.69189453 C40.90515625 11.14626953 40.88453125 13.60064453 40.86328125 16.12939453 C32.28328125 16.45939453 23.70328125 16.78939453 14.86328125 17.12939453 C14.53328125 20.75939453 14.20328125 24.38939453 13.86328125 28.12939453 C15.05566406 28.11779297 16.24804688 28.10619141 17.4765625 28.09423828 C19.04296719 28.08485861 20.60937356 28.0757586 22.17578125 28.06689453 C22.96146484 28.05851562 23.74714844 28.05013672 24.55664062 28.04150391 C25.31396484 28.03828125 26.07128906 28.03505859 26.8515625 28.03173828 C27.54805908 28.02650146 28.24455566 28.02126465 28.9621582 28.01586914 C30.86328125 28.12939453 30.86328125 28.12939453 33.86328125 29.12939453 C35.09019192 31.58321587 35.06504056 33.32923556 35.11328125 36.06689453 C35.1390625 36.94216797 35.16484375 37.81744141 35.19140625 38.71923828 C34.79207814 41.65239836 34.16036044 42.3278773 31.86328125 44.12939453 C29.87036133 44.4699707 29.87036133 44.4699707 27.6328125 44.42236328 C26.83037109 44.41269531 26.02792969 44.40302734 25.20117188 44.39306641 C24.36779297 44.36792969 23.53441406 44.34279297 22.67578125 44.31689453 C21.40831055 44.2965918 21.40831055 44.2965918 20.11523438 44.27587891 C18.03097741 44.24055252 15.94704848 44.18674592 13.86328125 44.12939453 C13.86328125 48.74939453 13.86328125 53.36939453 13.86328125 58.12939453 C22.77328125 58.12939453 31.68328125 58.12939453 40.86328125 58.12939453 C42.29645023 60.99573248 41.99528486 63.50174954 41.98828125 66.69189453 C41.99214844 68.45726563 41.99214844 68.45726563 41.99609375 70.25830078 C41.86328125 73.12939453 41.86328125 73.12939453 40.86328125 74.12939453 C39.42038338 74.22235269 37.9729834 74.24685966 36.52709961 74.24291992 C35.14578102 74.24280663 35.14578102 74.24280663 33.73655701 74.24269104 C32.73552444 74.23752975 31.73449188 74.23236847 30.703125 74.22705078 C29.17372032 74.22492836 29.17372032 74.22492836 27.61341858 74.22276306 C24.34251018 74.2171455 21.07166912 74.20459003 17.80078125 74.19189453 C15.58919369 74.18688179 13.37760507 74.1823185 11.16601562 74.17822266 C5.73174768 74.16717037 0.29751928 74.15041516 -5.13671875 74.12939453 C-5.15984359 64.62865128 -5.17763455 55.12791765 -5.18853092 45.62715244 C-5.19375944 41.21602449 -5.20085652 36.80491573 -5.2121582 32.39379883 C-5.22298819 28.14038338 -5.22899582 23.88698644 -5.23159599 19.63355827 C-5.23345004 18.0071782 -5.23707027 16.38079919 -5.24244881 14.75442696 C-5.24966073 12.4842926 -5.25070963 10.21423568 -5.25024414 7.9440918 C-5.25246475 6.64947525 -5.25468536 5.3548587 -5.25697327 4.02101135 C-5.07361185 -0.38806188 -4.00439569 0.00410329 0 0 Z " fill="#FB0101" transform="translate(352.13671875,28.87060546875)"/>
<path d="M0 0 C2.21875 1.11328125 2.21875 1.11328125 4.3125 2.375 C5.0859375 2.82230469 5.859375 3.26960938 6.65625 3.73046875 C17.81062567 10.66477229 24.31443047 19.80669299 28.23046875 32.3046875 C30.96655089 44.97513498 28.23952228 56.96764599 21.25 67.8125 C20.2909375 69.0809375 20.2909375 69.0809375 19.3125 70.375 C18.71566406 71.179375 18.11882812 71.98375 17.50390625 72.8125 C10.54147649 80.95395084 -0.66371061 85.6820701 -11.171875 86.71875 C-23.32484563 87.03716844 -32.72356749 84.27442406 -42.6875 77.375 C-43.62722656 76.76591797 -43.62722656 76.76591797 -44.5859375 76.14453125 C-52.45695518 70.35701825 -57.36277887 60.10866142 -59.3125 50.75 C-59.44914062 49.80898437 -59.58578125 48.86796875 -59.7265625 47.8984375 C-60.5124857 45.05162507 -60.5124857 45.05162507 -63.7421875 43.546875 C-66.6875 41.375 -66.6875 41.375 -67.34375 37.5546875 C-67.3225981 36.11900253 -67.26956047 34.68349392 -67.1875 33.25 C-67.1771875 32.52167969 -67.166875 31.79335938 -67.15625 31.04296875 C-66.99779762 25.68529762 -66.99779762 25.68529762 -64.6875 23.375 C-64.52068891 20.29152174 -64.52068891 20.29152174 -64.6875 17.375 C-63.03135343 16.99281233 -61.36292976 16.66104898 -59.6875 16.375 C-58.6875 17.375 -58.6875 17.375 -58.625 20.9375 C-58.645625 22.071875 -58.66625 23.20625 -58.6875 24.375 C-57.3675 24.375 -56.0475 24.375 -54.6875 24.375 C-54.6875 21.735 -54.6875 19.095 -54.6875 16.375 C-53.0375 16.375 -51.3875 16.375 -49.6875 16.375 C-49.55472656 17.01308594 -49.42195313 17.65117188 -49.28515625 18.30859375 C-49.10855469 19.13488281 -48.93195312 19.96117188 -48.75 20.8125 C-48.57597656 21.63621094 -48.40195312 22.45992187 -48.22265625 23.30859375 C-47.87997006 25.35161204 -47.87997006 25.35161204 -46.6875 26.375 C-45.41250487 38.41482743 -45.41250487 38.41482743 -48.09765625 42.54296875 C-49.21573164 43.6152005 -50.33794826 44.68313559 -51.46484375 45.74609375 C-52.87694783 47.31632047 -52.87694783 47.31632047 -52.81640625 49.47265625 C-50.96385062 59.03053176 -45.3398402 67.47176613 -37.6875 73.375 C-27.31073231 79.09570777 -16.40839043 81.38839819 -4.7265625 78.69140625 C-2.24533992 77.74822858 -0.00084817 76.6749967 2.3125 75.375 C3.10269531 74.93929687 3.89289063 74.50359375 4.70703125 74.0546875 C13.6383719 68.63367477 18.18406218 61.20952504 21.3125 51.375 C23.79445239 40.54316805 21.59564813 29.99953206 15.87109375 20.50390625 C10.21552713 12.77888418 2.60991396 7.63457218 -6.6875 5.375 C-16.63868644 4.03892898 -25.3819642 4.69744344 -34.40234375 9.37890625 C-36.6875 10.375 -36.6875 10.375 -39.6875 9.375 C-39.4921875 7.046875 -39.4921875 7.046875 -38.6875 4.375 C-36.5078125 2.828125 -36.5078125 2.828125 -33.8125 1.625 C-32.92820313 1.21765625 -32.04390625 0.8103125 -31.1328125 0.390625 C-22.29507766 -3.27999969 -8.97093471 -3.43173851 0 0 Z " fill="#F00A07" transform="translate(73.6875,22.625)"/>
<path d="M0 0 C0.68964844 -0.00386719 1.37929687 -0.00773437 2.08984375 -0.01171875 C7.24666707 -0.00166646 7.24666707 -0.00166646 9.5 1.125 C9.5 25.215 9.5 49.305 9.5 74.125 C3.56 74.125 -2.38 74.125 -8.5 74.125 C-9.5 73.125 -9.5 73.125 -9.62025452 70.27134705 C-9.61803391 68.99449539 -9.61581329 67.71764374 -9.61352539 66.40209961 C-9.61367142 65.6996965 -9.61381744 64.9972934 -9.6139679 64.27360535 C-9.61326872 61.94148722 -9.60547617 59.609448 -9.59765625 57.27734375 C-9.59579208 55.66451562 -9.59436818 54.05168693 -9.59336853 52.43885803 C-9.58954323 48.18584643 -9.57971285 43.93286876 -9.56866455 39.67987061 C-9.55845069 35.3432257 -9.55387096 31.00657533 -9.54882812 26.66992188 C-9.53809059 18.15493231 -9.52101403 9.63997037 -9.5 1.125 C-6.46570323 -0.39214839 -3.32398333 -0.01863916 0 0 Z " fill="#F30504" transform="translate(191.5,28.875)"/>
<path d="M0 0 C3.47857013 1.53638656 6.75880832 3.37128595 10.0625 5.25 C11.37057617 5.96736328 11.37057617 5.96736328 12.70507812 6.69921875 C25.31516271 13.7440654 25.31516271 13.7440654 27.0625 19.5 C26.99091873 23.50855119 26.33566936 24.80680676 24 28 C21.55151367 29.83691406 21.55151367 29.83691406 18.66796875 31.515625 C17.62189453 32.12664062 16.57582031 32.73765625 15.49804688 33.3671875 C14.40556641 33.98851562 13.31308594 34.60984375 12.1875 35.25 C11.10662109 35.88679688 10.02574219 36.52359375 8.91210938 37.1796875 C-0.32435244 42.50950586 -0.32435244 42.50950586 -6 43 C-9.12332161 41.72227752 -10.5822091 40.82218989 -12.11962891 37.79663086 C-13.8691104 32.23914042 -13.36933318 26.33981861 -13.375 20.5625 C-13.41173828 18.59700195 -13.41173828 18.59700195 -13.44921875 16.59179688 C-13.45308594 15.32529297 -13.45695312 14.05878906 -13.4609375 12.75390625 C-13.46915527 11.60220947 -13.47737305 10.4505127 -13.48583984 9.26391602 C-12.89500614 5.29464173 -11.47649204 3.11941084 -9 0 C-5.90905487 -1.54547256 -3.2109013 -0.88545953 0 0 Z M-6 5 C-6 15.56 -6 26.12 -6 37 C-1.85696494 35.61898831 1.04761991 34.57836784 4.671875 32.46875 C5.50074219 31.98792969 6.32960938 31.50710937 7.18359375 31.01171875 C8.03050781 30.51285156 8.87742187 30.01398438 9.75 29.5 C10.61238281 29.00113281 11.47476563 28.50226563 12.36328125 27.98828125 C16.96264927 25.36865715 16.96264927 25.36865715 21 22 C20.97050915 19.96535373 20.97050915 19.96535373 20 18 C18.30734175 16.58954113 18.30734175 16.58954113 16.140625 15.52734375 C15.35429688 15.10259766 14.56796875 14.67785156 13.7578125 14.24023438 C12.51644531 13.59538086 12.51644531 13.59538086 11.25 12.9375 C9.62991278 12.0721677 8.01011333 11.20629638 6.390625 10.33984375 C5.62556641 9.93749512 4.86050781 9.53514648 4.07226562 9.12060547 C2.38254966 8.20686887 0.73784388 7.21029962 -0.890625 6.19140625 C-3.03159253 4.75410421 -3.03159253 4.75410421 -6 5 Z " fill="#E80D0B" transform="translate(55,44)"/>
<path d="M0 0 C0.87760986 -0.00315216 1.75521973 -0.00630432 2.65942383 -0.009552 C3.61357178 -0.00752777 4.56771973 -0.00550354 5.55078125 -0.00341797 C6.52362061 -0.00437469 7.49645996 -0.00533142 8.4987793 -0.00631714 C10.56005925 -0.00699905 12.62134133 -0.00514399 14.68261719 -0.00097656 C17.84965813 0.00437153 21.01655725 -0.00092119 24.18359375 -0.00732422 C26.1809899 -0.00666344 28.17838596 -0.00538228 30.17578125 -0.00341797 C31.1299292 -0.0054422 32.08407715 -0.00746643 33.06713867 -0.009552 C34.38355347 -0.00482376 34.38355347 -0.00482376 35.7265625 0 C36.50298096 0.00079559 37.27939941 0.00159119 38.0793457 0.00241089 C39.86328125 0.12939453 39.86328125 0.12939453 40.86328125 1.12939453 C40.93648288 3.66217103 40.95555694 6.16043371 40.92578125 8.69189453 C40.90515625 11.14626953 40.88453125 13.60064453 40.86328125 16.12939453 C32.28328125 16.45939453 23.70328125 16.78939453 14.86328125 17.12939453 C14.53328125 20.75939453 14.20328125 24.38939453 13.86328125 28.12939453 C15.05566406 28.11779297 16.24804688 28.10619141 17.4765625 28.09423828 C19.04296719 28.08485861 20.60937356 28.0757586 22.17578125 28.06689453 C22.96146484 28.05851562 23.74714844 28.05013672 24.55664062 28.04150391 C25.31396484 28.03828125 26.07128906 28.03505859 26.8515625 28.03173828 C27.54805908 28.02650146 28.24455566 28.02126465 28.9621582 28.01586914 C30.86328125 28.12939453 30.86328125 28.12939453 33.86328125 29.12939453 C35.09019192 31.58321587 35.06504056 33.32923556 35.11328125 36.06689453 C35.1390625 36.94216797 35.16484375 37.81744141 35.19140625 38.71923828 C34.79207814 41.65239836 34.16036044 42.3278773 31.86328125 44.12939453 C29.87036133 44.4699707 29.87036133 44.4699707 27.6328125 44.42236328 C26.83037109 44.41269531 26.02792969 44.40302734 25.20117188 44.39306641 C24.36779297 44.36792969 23.53441406 44.34279297 22.67578125 44.31689453 C21.40831055 44.2965918 21.40831055 44.2965918 20.11523438 44.27587891 C18.03097741 44.24055252 15.94704848 44.18674592 13.86328125 44.12939453 C13.86328125 48.74939453 13.86328125 53.36939453 13.86328125 58.12939453 C22.77328125 58.12939453 31.68328125 58.12939453 40.86328125 58.12939453 C42.29645023 60.99573248 41.99528486 63.50174954 41.98828125 66.69189453 C41.99214844 68.45726563 41.99214844 68.45726563 41.99609375 70.25830078 C41.86328125 73.12939453 41.86328125 73.12939453 40.86328125 74.12939453 C39.42038338 74.22235269 37.9729834 74.24685966 36.52709961 74.24291992 C35.14578102 74.24280663 35.14578102 74.24280663 33.73655701 74.24269104 C32.73552444 74.23752975 31.73449188 74.23236847 30.703125 74.22705078 C29.17372032 74.22492836 29.17372032 74.22492836 27.61341858 74.22276306 C24.34251018 74.2171455 21.07166912 74.20459003 17.80078125 74.19189453 C15.58919369 74.18688179 13.37760507 74.1823185 11.16601562 74.17822266 C5.73174768 74.16717037 0.29751928 74.15041516 -5.13671875 74.12939453 C-5.15984359 64.62865128 -5.17763455 55.12791765 -5.18853092 45.62715244 C-5.19375944 41.21602449 -5.20085652 36.80491573 -5.2121582 32.39379883 C-5.22298819 28.14038338 -5.22899582 23.88698644 -5.23159599 19.63355827 C-5.23345004 18.0071782 -5.23707027 16.38079919 -5.24244881 14.75442696 C-5.24966073 12.4842926 -5.25070963 10.21423568 -5.25024414 7.9440918 C-5.25246475 6.64947525 -5.25468536 5.3548587 -5.25697327 4.02101135 C-5.07361185 -0.38806188 -4.00439569 0.00410329 0 0 Z M-2.13671875 2.12939453 C-3.56457225 4.98510153 -3.25613361 7.4065381 -3.25024414 10.59863281 C-3.25039017 11.26216766 -3.25053619 11.92570251 -3.25068665 12.60934448 C-3.24998906 14.80616506 -3.24220389 17.00290123 -3.234375 19.19970703 C-3.23251027 20.7214249 -3.23108663 22.24314337 -3.23008728 23.76486206 C-3.22626642 27.772905 -3.21643979 31.78091179 -3.2053833 35.78894043 C-3.19336294 40.596372 -3.18876489 45.40381564 -3.18292999 50.21125793 C-3.17322782 57.51732862 -3.15406827 64.82331996 -3.13671875 72.12939453 C11.05328125 72.12939453 25.24328125 72.12939453 39.86328125 72.12939453 C39.86328125 68.49939453 39.86328125 64.86939453 39.86328125 61.12939453 C38.1182151 59.38432838 35.67288982 59.89656669 33.296875 59.81298828 C31.60981445 59.75014648 31.60981445 59.75014648 29.88867188 59.68603516 C28.11266602 59.62706055 28.11266602 59.62706055 26.30078125 59.56689453 C25.11291016 59.52371094 23.92503906 59.48052734 22.70117188 59.43603516 C19.75535928 59.32956 16.80933623 59.22893773 13.86328125 59.12939453 C13.53328125 53.51939453 13.20328125 47.90939453 12.86328125 42.12939453 C19.46328125 42.12939453 26.06328125 42.12939453 32.86328125 42.12939453 C32.86328125 38.16939453 32.86328125 34.20939453 32.86328125 30.12939453 C30.61334766 30.10232314 28.3633203 30.08296624 26.11328125 30.06689453 C24.23382813 30.04949219 24.23382813 30.04949219 22.31640625 30.03173828 C19.55587297 30.10980766 17.48417915 30.42327883 14.86328125 31.12939453 C13.86328125 30.12939453 13.86328125 30.12939453 13.765625 26.75048828 C13.77136701 25.35591961 13.78437897 23.96137856 13.80078125 22.56689453 C13.82140625 20.11251953 13.84203125 17.65814453 13.86328125 15.12939453 C22.11328125 15.12939453 30.36328125 15.12939453 38.86328125 15.12939453 C38.86328125 10.83939453 38.86328125 6.54939453 38.86328125 2.12939453 C25.33328125 2.12939453 11.80328125 2.12939453 -2.13671875 2.12939453 Z " fill="#E00E0C" transform="translate(352.13671875,28.87060546875)"/>
<path d="M0 0 C2.21875 1.11328125 2.21875 1.11328125 4.3125 2.375 C5.0859375 2.82230469 5.859375 3.26960938 6.65625 3.73046875 C17.80803116 10.66315937 24.3553091 19.82390258 28.23046875 32.33984375 C29.61137683 38.79952784 29.2438482 44.86814837 28.3125 51.375 C27.9825 51.375 27.6525 51.375 27.3125 51.375 C27.25191406 50.13363281 27.19132812 48.89226562 27.12890625 47.61328125 C27.04446377 45.97134423 26.95981764 44.32941768 26.875 42.6875 C26.83568359 41.87087891 26.79636719 41.05425781 26.75585938 40.21289062 C26.54351997 36.17844189 26.26802078 32.31752691 25.3125 28.375 C24.6525 28.375 23.9925 28.375 23.3125 28.375 C23.8075 36.79 23.8075 36.79 24.3125 45.375 C23.9825 45.375 23.6525 45.375 23.3125 45.375 C23.16554687 44.34761719 23.01859375 43.32023437 22.8671875 42.26171875 C20.97016306 30.10899785 17.78584695 20.12404082 7.83203125 12.1015625 C-2.14515765 5.26448112 -12.83475581 3.58308479 -24.6875 5.375 C-28.13761715 6.45973715 -31.19701156 7.71537942 -34.40234375 9.37890625 C-36.6875 10.375 -36.6875 10.375 -39.6875 9.375 C-39.4921875 7.046875 -39.4921875 7.046875 -38.6875 4.375 C-36.5078125 2.828125 -36.5078125 2.828125 -33.8125 1.625 C-32.92820312 1.21765625 -32.04390625 0.8103125 -31.1328125 0.390625 C-22.29507766 -3.27999969 -8.97093471 -3.43173851 0 0 Z " fill="#DD1C16" transform="translate(73.6875,22.625)"/>
<path d="M0 0 C4.46524942 0.03721041 8.22622234 0.19958114 12.3125 2.1875 C13.69800197 4.95850394 13.5002467 7.1209706 13.3125 10.1875 C12.3225 11.6725 12.3225 11.6725 11.3125 13.1875 C11.828125 13.909375 12.34375 14.63125 12.875 15.375 C14.3125 18.1875 14.3125 18.1875 14.1875 20.875 C13.3125 23.1875 13.3125 23.1875 10.3125 25.1875 C5.43763034 26.66473323 -2.03544663 27.51352669 -6.6875 25.1875 C-6.71636984 21.20834841 -6.73425406 17.22922347 -6.75 13.25 C-6.75837891 12.11369141 -6.76675781 10.97738281 -6.77539062 9.80664062 C-6.77861328 8.72705078 -6.78183594 7.64746094 -6.78515625 6.53515625 C-6.79039307 5.53492432 -6.79562988 4.53469238 -6.80102539 3.50415039 C-6.58132789 -0.97909613 -3.88508665 0.02389352 0 0 Z M1.3125 7.1875 C1.3125 8.1775 1.3125 9.1675 1.3125 10.1875 C2.9625 10.1875 4.6125 10.1875 6.3125 10.1875 C6.3125 9.1975 6.3125 8.2075 6.3125 7.1875 C4.6625 7.1875 3.0125 7.1875 1.3125 7.1875 Z M0.3125 16.1875 C0.6425 17.5075 0.9725 18.8275 1.3125 20.1875 C2.9625 19.8575 4.6125 19.5275 6.3125 19.1875 C6.3125 18.1975 6.3125 17.2075 6.3125 16.1875 C4.3325 16.1875 2.3525 16.1875 0.3125 16.1875 Z " fill="#E01312" transform="translate(368.6875,110.8125)"/>
<path d="M0 0 C1.4540625 0.0309375 1.4540625 0.0309375 2.9375 0.0625 C2.9375 3.3625 2.9375 6.6625 2.9375 10.0625 C5.5775 10.0625 8.2175 10.0625 10.9375 10.0625 C10.9375 6.7625 10.9375 3.4625 10.9375 0.0625 C13.2475 0.0625 15.5575 0.0625 17.9375 0.0625 C18.95840261 3.12520783 18.99596277 4.94630372 18.8515625 8.1328125 C18.80773437 9.11121094 18.76390625 10.08960937 18.71875 11.09765625 C18.6671875 12.11730469 18.615625 13.13695313 18.5625 14.1875 C18.51867187 15.21488281 18.47484375 16.24226563 18.4296875 17.30078125 C18.06671507 24.93328493 18.06671507 24.93328493 16.9375 26.0625 C14.4375 26.1875 14.4375 26.1875 11.9375 26.0625 C10.35477399 24.47977399 10.59014253 22.68215997 10.375 20.5 C10.29121094 19.67371094 10.20742188 18.84742188 10.12109375 17.99609375 C10.06050781 17.35800781 9.99992187 16.71992187 9.9375 16.0625 C7.6275 16.0625 5.3175 16.0625 2.9375 16.0625 C2.94910156 16.70058594 2.96070313 17.33867187 2.97265625 17.99609375 C2.98167969 18.82238281 2.99070312 19.64867187 3 20.5 C3.01160156 21.32371094 3.02320313 22.14742187 3.03515625 22.99609375 C2.9375 25.0625 2.9375 25.0625 1.9375 26.0625 C0.27132885 26.10313832 -1.39638095 26.105221 -3.0625 26.0625 C-4.33387774 23.51974451 -4.191925 21.71441799 -4.1953125 18.87109375 C-4.19660156 17.84435547 -4.19789063 16.81761719 -4.19921875 15.75976562 C-4.19535156 14.68404297 -4.19148438 13.60832031 -4.1875 12.5 C-4.19136719 11.42041016 -4.19523437 10.34082031 -4.19921875 9.22851562 C-4.19792969 8.20306641 -4.19664062 7.17761719 -4.1953125 6.12109375 C-4.19418457 5.17548584 -4.19305664 4.22987793 -4.19189453 3.25561523 C-3.98782305 -0.20320386 -3.54247109 0.07229533 0 0 Z " fill="#E2130F" transform="translate(297.0625,110.9375)"/>
<path d="M0 0 C2.5 0.125 2.5 0.125 3.5 1.125 C3.73678716 3.81735776 3.92198025 6.48998156 4.0625 9.1875 C4.10568359 9.94611328 4.14886719 10.70472656 4.19335938 11.48632812 C4.29973633 13.36565438 4.40039934 15.24530244 4.5 17.125 C7.44729537 18.28311388 7.44729537 18.28311388 10.5 18.125 C10.48259766 16.30162109 10.48259766 16.30162109 10.46484375 14.44140625 C10.45546722 12.85677236 10.44636687 11.27213682 10.4375 9.6875 C10.42912109 8.88505859 10.42074219 8.08261719 10.41210938 7.25585938 C10.4034857 5.21204779 10.4477185 3.16816098 10.5 1.125 C11.5 0.125 11.5 0.125 14.5 0 C17.5 0.125 17.5 0.125 18.5 1.125 C18.65461551 3.53640721 18.73170241 5.89950571 18.75 8.3125 C18.77578125 9.62605469 18.8015625 10.93960938 18.828125 12.29296875 C18.41729569 17.09086822 16.9593767 20.12417339 14.15234375 23.97265625 C10.55852804 26.47898163 5.65794461 25.6985096 1.5 25.125 C-1.66620095 22.93881363 -2.2896387 21.75608389 -3.5 18.125 C-3.59636449 15.23973389 -3.63927947 12.38445222 -3.625 9.5 C-3.62886719 8.71109375 -3.63273437 7.9221875 -3.63671875 7.109375 C-3.62481474 0.18124074 -3.62481474 0.18124074 0 0 Z " fill="#E6100D" transform="translate(331.5,110.875)"/>
<path d="M0 0 C0.75740479 0.00008057 1.51480957 0.00016113 2.29516602 0.00024414 C4.56676767 -0.00191449 6.83786122 -0.01998248 9.109375 -0.0390625 C22.10840177 -0.09128254 33.00008618 0.46364306 42.66992188 9.99804688 C43.32992187 10.71992188 43.98992187 11.44179688 44.66992188 12.18554688 C44.33992188 12.84554688 44.00992188 13.50554688 43.66992188 14.18554688 C43.03376953 13.47978516 43.03376953 13.47978516 42.38476562 12.75976562 C28.86701819 -1.58984319 8.13355375 2.80100127 -10.33007812 2.18554688 C-10.33007812 31.22554688 -10.33007812 60.26554688 -10.33007812 90.18554688 C2.20992188 90.18554688 14.74992188 90.18554688 27.66992188 90.18554688 C27.66992188 90.51554687 27.66992188 90.84554687 27.66992188 91.18554688 C20.57410066 92.32562098 13.536646 92.37170799 6.35888672 92.37084961 C4.27877143 92.37306407 2.1991644 92.3913535 0.11914062 92.41015625 C-1.19183594 92.41208984 -2.5028125 92.41402344 -3.85351562 92.41601562 C-5.04895996 92.42012451 -6.2444043 92.4242334 -7.47607422 92.4284668 C-10.33007812 92.18554688 -10.33007812 92.18554688 -12.33007812 90.18554688 C-12.52350167 87.35930461 -12.59229023 84.63142266 -12.57299805 81.80444336 C-12.57489639 80.93768982 -12.57679474 80.07093628 -12.57875061 79.17791748 C-12.58246472 76.30406742 -12.57174597 73.43046834 -12.56054688 70.55664062 C-12.55935542 68.56649302 -12.55890184 66.57634485 -12.55915833 64.5861969 C-12.55759241 60.41232796 -12.54929389 56.23854466 -12.53588867 52.06469727 C-12.51888768 46.70195174 -12.51507458 41.33930034 -12.51583385 35.97653103 C-12.51556256 31.86659336 -12.51008811 27.75667646 -12.50283241 23.64674568 C-12.49963993 21.66869324 -12.49767699 19.69063843 -12.49693871 17.71258354 C-12.49478188 14.95409977 -12.48605231 12.19571791 -12.4753418 9.43725586 C-12.47579498 8.6117775 -12.47624817 7.78629913 -12.47671509 6.93580627 C-12.4245479 -2.20533832 -7.90674371 0.02666226 0 0 Z " fill="#CC1A16" transform="translate(122.330078125,16.814453125)"/>
<path d="M0 0 C0.87760986 -0.00315216 1.75521973 -0.00630432 2.65942383 -0.009552 C3.61357178 -0.00752777 4.56771973 -0.00550354 5.55078125 -0.00341797 C6.52362061 -0.00437469 7.49645996 -0.00533142 8.4987793 -0.00631714 C10.56005925 -0.00699905 12.62134133 -0.00514399 14.68261719 -0.00097656 C17.84965813 0.00437153 21.01655725 -0.00092119 24.18359375 -0.00732422 C26.1809899 -0.00666344 28.17838596 -0.00538228 30.17578125 -0.00341797 C31.1299292 -0.0054422 32.08407715 -0.00746643 33.06713867 -0.009552 C34.38355347 -0.00482376 34.38355347 -0.00482376 35.7265625 0 C36.50298096 0.00079559 37.27939941 0.00159119 38.0793457 0.00241089 C39.86328125 0.12939453 39.86328125 0.12939453 40.86328125 1.12939453 C40.93648288 3.66217103 40.95555694 6.16043371 40.92578125 8.69189453 C40.90515625 11.14626953 40.88453125 13.60064453 40.86328125 16.12939453 C27.49828125 16.62439453 27.49828125 16.62439453 13.86328125 17.12939453 C13.86328125 16.46939453 13.86328125 15.80939453 13.86328125 15.12939453 C22.11328125 15.12939453 30.36328125 15.12939453 38.86328125 15.12939453 C38.86328125 10.83939453 38.86328125 6.54939453 38.86328125 2.12939453 C24.67328125 2.12939453 10.48328125 2.12939453 -4.13671875 2.12939453 C-4.13671875 25.55939453 -4.13671875 48.98939453 -4.13671875 73.12939453 C10.71328125 73.12939453 25.56328125 73.12939453 40.86328125 73.12939453 C40.86328125 73.45939453 40.86328125 73.78939453 40.86328125 74.12939453 C25.68328125 74.12939453 10.50328125 74.12939453 -5.13671875 74.12939453 C-5.17682756 55.95119083 -5.17682756 55.95119083 -5.18554688 48.22900391 C-5.191535 42.95059205 -5.19863447 37.67219746 -5.2121582 32.39379883 C-5.22298819 28.14038338 -5.22899582 23.88698644 -5.23159599 19.63355827 C-5.23345004 18.0071782 -5.23707027 16.38079919 -5.24244881 14.75442696 C-5.24966073 12.4842926 -5.25070963 10.21423568 -5.25024414 7.9440918 C-5.25246475 6.64947525 -5.25468536 5.3548587 -5.25697327 4.02101135 C-5.07361185 -0.38806188 -4.00439569 0.00410329 0 0 Z " fill="#BF211D" transform="translate(352.13671875,28.87060546875)"/>
<path d="M0 0 C0.66 0 1.32 0 2 0 C5.8754816 7.96001407 6.18015385 19.21886391 4.0859375 27.703125 C2.893993 30.6135171 1.58743649 33.28757351 0 36 C-0.99 37.7015625 -0.99 37.7015625 -2 39.4375 C-4.14800398 42.18963009 -6.46333789 44.60426357 -9 47 C-9.99 46.34 -10.98 45.68 -12 45 C-12 45.99 -12 46.98 -12 48 C-13.32 48 -14.64 48 -16 48 C-15 45 -15 45 -13.12890625 43.63671875 C-7.17704247 39.06088219 -4.35217308 29.93891058 -2 23 C-1.64679688 22.11699219 -1.29359375 21.23398438 -0.9296875 20.32421875 C0.23460135 16.16115233 0.21961582 12.41910267 0.125 8.125 C0.11597656 7.34125 0.10695313 6.5575 0.09765625 5.75 C0.07428063 3.83319945 0.03841653 1.91655809 0 0 Z " fill="#E6100E" transform="translate(97,51)"/>
<path d="M0 0 C0.33 0.66 0.66 1.32 1 2 C3.52733235 2.65555119 3.52733235 2.65555119 6 3 C5.67 5.97 5.34 8.94 5 12 C4.34 11.67 3.68 11.34 3 11 C2.375 8.9375 2.375 8.9375 2 7 C-0.97 6.505 -0.97 6.505 -4 6 C-4.15149298 9.62885324 -4.15149298 9.62885324 -3 13 C-3.66 13 -4.32 13 -5 13 C-5.14953764 18.09108286 -5.14953764 18.09108286 -4 23 C-3.34 23.33 -2.68 23.66 -2 24 C-4.97 24 -7.94 24 -11 24 C-11 16.74 -11 9.48 -11 2 C-7.37 2 -3.74 2 0 2 C0 1.34 0 0.68 0 0 Z " fill="#FA0604" transform="translate(374,111)"/>
<path d="M0 0 C0.33 0 0.66 0 1 0 C1 3.63 1 7.26 1 11 C2.19238281 10.98839844 3.38476562 10.97679687 4.61328125 10.96484375 C6.17968594 10.95546408 7.74609231 10.94636407 9.3125 10.9375 C10.09818359 10.92912109 10.88386719 10.92074219 11.69335938 10.91210938 C12.45068359 10.90888672 13.20800781 10.90566406 13.98828125 10.90234375 C14.68477783 10.89710693 15.38127441 10.89187012 16.09887695 10.88647461 C18 11 18 11 21 12 C22.22691067 14.45382134 22.20175931 16.19984103 22.25 18.9375 C22.27578125 19.81277344 22.3015625 20.68804687 22.328125 21.58984375 C21.92879689 24.52300383 21.29707919 25.19848276 19 27 C17.00708008 27.34057617 17.00708008 27.34057617 14.76953125 27.29296875 C13.96708984 27.28330078 13.16464844 27.27363281 12.33789062 27.26367188 C11.08782227 27.2259668 11.08782227 27.2259668 9.8125 27.1875 C8.5450293 27.16719727 8.5450293 27.16719727 7.25195312 27.14648438 C5.16769616 27.11115799 3.08376723 27.05735139 1 27 C1 31.62 1 36.24 1 41 C9.91 41 18.82 41 28 41 C27.67 41.66 27.34 42.32 27 43 C18.09 42.67 9.18 42.34 0 42 C0 36.39 0 30.78 0 25 C6.6 25 13.2 25 20 25 C20 21.04 20 17.08 20 13 C17.74971671 13.14139481 15.49977794 13.28828003 13.25 13.4375 C11.99703125 13.51871094 10.7440625 13.59992187 9.453125 13.68359375 C6.15437489 13.87914067 6.15437489 13.87914067 3.671875 14.66015625 C3.12015625 14.77230469 2.5684375 14.88445313 2 15 C0 13 0 13 -0.1953125 9.9609375 C-0.17210937 8.77757812 -0.14890625 7.59421875 -0.125 6.375 C-0.10695313 5.18648437 -0.08890625 3.99796875 -0.0703125 2.7734375 C-0.04710937 1.85820313 -0.02390625 0.94296875 0 0 Z " fill="#CF1E19" transform="translate(365,46)"/>
<path d="M0 0 C6.63232896 -0.72090532 11.52281454 1.24627817 17 5 C20.69183381 8.76006072 23.41981079 12.94339452 25 18 C20.260128 21.40298503 15.37732887 23.75347149 10 26 C6 20.25 6 20.25 6 18 C-0.55635166 16.85246317 -0.55635166 16.85246317 -6.9375 18.125 C-9.22922493 20.2083863 -10.58959447 22.25342081 -12 25 C-13 22 -13 22 -12.22265625 20.17578125 C-11.1484375 18.45052083 -10.07421875 16.72526042 -9 15 C-6.89590361 14.97298592 -4.79170822 14.95359777 -2.6875 14.9375 C-1.51574219 14.92589844 -0.34398437 14.91429687 0.86328125 14.90234375 C4 15 4 15 7 16 C7 16.99 7 17.98 7 19 C7.66 19 8.32 19 9 19 C10.625 21 10.625 21 12 23 C12.99 22.34 13.98 21.68 15 21 C15.99 21 16.98 21 18 21 C18 20.34 18 19.68 18 19 C18.66 18.67 19.32 18.34 20 18 C21.0248753 16.23966377 21.0248753 16.23966377 21 14 C18.55049132 10.2315251 15.50835887 7.74979479 12 5 C11.67 4.34 11.34 3.68 11 3 C8.42048126 2.30906104 8.42048126 2.30906104 5.4375 1.875 C4.42558594 1.70742188 3.41367187 1.53984375 2.37109375 1.3671875 C1.58863281 1.24601562 0.80617188 1.12484375 0 1 C0 0.67 0 0.34 0 0 Z " fill="#DA1913" transform="translate(312,28)"/>
<path d="M0 0 C1.65 0 3.3 0 5 0 C5 7.59 5 15.18 5 23 C3.35 23 1.7 23 0 23 C-0.33 19.7 -0.66 16.4 -1 13 C-2.98 13 -4.96 13 -7 13 C-6.67 12.34 -6.34 11.68 -6 11 C-4.02 11 -2.04 11 0 11 C0 7.37 0 3.74 0 0 Z " fill="#F50603" transform="translate(309,112)"/>
<path d="M0 0 C1.20970459 0.00523682 2.41940918 0.01047363 3.66577148 0.01586914 C4.84083252 0.0183667 6.01589355 0.02086426 7.2265625 0.0234375 C8.7314624 0.0325415 10.2363623 0.04164551 11.78686523 0.05102539 C16.55124023 0.07165039 21.31561523 0.09227539 26.22436523 0.11352539 C26.22436523 12.32352539 26.22436523 24.53352539 26.22436523 37.11352539 C25.89436523 37.11352539 25.56436523 37.11352539 25.22436523 37.11352539 C25.22436523 25.56352539 25.22436523 14.01352539 25.22436523 2.11352539 C16.31436523 2.11352539 7.40436523 2.11352539 -1.77563477 2.11352539 C-1.77563477 6.07352539 -1.77563477 10.03352539 -1.77563477 14.11352539 C1.52436523 14.11352539 4.82436523 14.11352539 8.22436523 14.11352539 C8.22436523 14.44352539 8.22436523 14.77352539 8.22436523 15.11352539 C6.41194472 15.14039818 4.5994129 15.15986255 2.78686523 15.17602539 C1.7775293 15.18762695 0.76819336 15.19922852 -0.27172852 15.21118164 C-2.77563477 15.11352539 -2.77563477 15.11352539 -3.77563477 14.11352539 C-3.87456416 11.94871742 -3.90534577 9.78058754 -3.90063477 7.61352539 C-3.90321289 6.42758789 -3.90579102 5.24165039 -3.90844727 4.01977539 C-3.73172288 0.15263006 -3.73172288 0.15263006 0 0 Z " fill="#D31B18" transform="translate(309.775634765625,60.886474609375)"/>
<path d="M0 0 C1.98 0 3.96 0 6 0 C5.96691357 2.58675725 5.89971107 5.16497438 5.8125 7.75 C5.80669922 8.47960937 5.80089844 9.20921875 5.79492188 9.9609375 C5.63172145 13.95028124 5.41570392 15.61039694 2.44921875 18.390625 C1.64097656 18.92171875 0.83273437 19.4528125 0 20 C0 20.66 0 21.32 0 22 C-2.64 22 -5.28 22 -8 22 C-7.67 20.68 -7.34 19.36 -7 18 C-5.02 17.67 -3.04 17.34 -1 17 C-0.67 11.39 -0.34 5.78 0 0 Z " fill="#F90502" transform="translate(343,113)"/>
<path d="M0 0 C1.67542976 0.28604898 3.34385343 0.61781233 5 1 C5 3.31 5 5.62 5 8 C6.32 8 7.64 8 9 8 C9 5.36 9 2.72 9 0 C10.65 0 12.3 0 14 0 C14.13277344 0.63808594 14.26554687 1.27617188 14.40234375 1.93359375 C14.57894531 2.75988281 14.75554688 3.58617187 14.9375 4.4375 C15.11152344 5.26121094 15.28554688 6.08492187 15.46484375 6.93359375 C15.80752994 8.97661204 15.80752994 8.97661204 17 10 C17.17883149 12.26617608 17.26802736 14.53971385 17.3125 16.8125 C17.34988281 18.05644531 17.38726563 19.30039062 17.42578125 20.58203125 C16.93707221 24.5051543 16.05510526 25.60773809 13 28 C12.67 27.34 12.34 26.68 12 26 C12.66 25.67 13.32 25.34 14 25 C14.02685095 22.52076199 14.04676547 20.0418116 14.0625 17.5625 C14.07087891 16.85544922 14.07925781 16.14839844 14.08789062 15.41992188 C14.09653588 13.61306441 14.05220011 11.80612397 14 10 C13.67 9.67 13.34 9.34 13 9 C12.95907063 6.66702567 12.95758277 4.33294775 13 2 C12.34 2 11.68 2 11 2 C11.020625 2.94875 11.04125 3.8975 11.0625 4.875 C11 8 11 8 10 10 C7.125 9.75 7.125 9.75 4 9 C2.625 6.9375 2.625 6.9375 2 5 C1.67 6.32 1.34 7.64 1 9 C0.34 8.67 -0.32 8.34 -1 8 C-1.04241723 5.66705225 -1.04092937 3.33297433 -1 1 C-0.67 0.67 -0.34 0.34 0 0 Z " fill="#CE1E1A" transform="translate(10,39)"/>
<path d="M0 0 C5.90461699 5.12769371 8.15514592 13.79191917 8.875 21.3125 C9.08808988 25.69524048 8.87840853 29.70555831 8 34 C7.67 34 7.34 34 7 34 C6.93941406 32.75863281 6.87882812 31.51726562 6.81640625 30.23828125 C6.73196377 28.59634423 6.64731764 26.95441768 6.5625 25.3125 C6.52318359 24.49587891 6.48386719 23.67925781 6.44335938 22.83789062 C6.23101997 18.80344189 5.95552078 14.94252691 5 11 C4.34 11 3.68 11 3 11 C3.33 16.61 3.66 22.22 4 28 C3.67 28 3.34 28 3 28 C2.74476562 26.40671875 2.74476562 26.40671875 2.484375 24.78125 C1.19687505 17.15182101 -0.18303401 10.81601069 -4 4 C-3.67 3.34 -3.34 2.68 -3 2 C-2.34 3.32 -1.68 4.64 -1 6 C-0.34 6 0.32 6 1 6 C0.67 4.02 0.34 2.04 0 0 Z " fill="#D71B17" transform="translate(94,40)"/>
<path d="M0 0 C1.21236328 0.01353516 1.21236328 0.01353516 2.44921875 0.02734375 C3.37154297 0.04474609 3.37154297 0.04474609 4.3125 0.0625 C4.6425 0.7225 4.9725 1.3825 5.3125 2.0625 C1.6825 2.3925 -1.9475 2.7225 -5.6875 3.0625 C-6.0175 8.6725 -6.3475 14.2825 -6.6875 20.0625 C2.63047036 19.79413161 2.63047036 19.79413161 10.3125 15.0625 C10.38455511 13.37641034 10.39636068 11.68749341 10.375 10 C10.36597656 9.08089844 10.35695312 8.16179688 10.34765625 7.21484375 C10.33605469 6.50457031 10.32445312 5.79429688 10.3125 5.0625 C10.9725 5.3925 11.6325 5.7225 12.3125 6.0625 C12.796875 7.98828125 12.796875 7.98828125 13.0625 10.375 C13.20945313 11.54482422 13.20945313 11.54482422 13.359375 12.73828125 C13.30504189 15.43229817 12.79108344 16.82295179 11.3125 19.0625 C5.53759516 22.50286884 -0.06075836 22.65867745 -6.6875 22.0625 C-7.6875 21.0625 -7.6875 21.0625 -7.80102539 19.11303711 C-7.79317017 17.8640564 -7.79317017 17.8640564 -7.78515625 16.58984375 C-7.78193359 15.69072266 -7.77871094 14.79160156 -7.77539062 13.86523438 C-7.76701172 12.91970703 -7.75863281 11.97417969 -7.75 11 C-7.74548828 10.05060547 -7.74097656 9.10121094 -7.73632812 8.12304688 C-7.7245011 5.76946935 -7.70802025 3.41601523 -7.6875 1.0625 C-4.80538698 0.10179566 -2.98899956 -0.04331883 0 0 Z " fill="#CD1816" transform="translate(136.6875,32.9375)"/>
<path d="M0 0 C3 0.125 3 0.125 4 1.125 C4.15461551 3.53640721 4.23170241 5.89950571 4.25 8.3125 C4.27578125 9.62605469 4.3015625 10.93960938 4.328125 12.29296875 C3.91676883 17.09702114 2.4382637 20.11311793 -0.33203125 23.98828125 C-2.79023848 25.6635466 -4.7543247 25.41602383 -7.6875 25.3125 C-9.17830078 25.27189453 -9.17830078 25.27189453 -10.69921875 25.23046875 C-11.45847656 25.19566406 -12.21773438 25.16085938 -13 25.125 C-13 24.795 -13 24.465 -13 24.125 C-9.7 24.125 -6.4 24.125 -3 24.125 C-3.33 23.135 -3.66 22.145 -4 21.125 C-2.80310547 20.63580078 -2.80310547 20.63580078 -1.58203125 20.13671875 C1.38395623 18.25504376 1.38395623 18.25504376 1.92578125 14.33203125 C2.07799808 12.86942602 2.20618343 11.40415634 2.3125 9.9375 C2.38533203 9.18791016 2.45816406 8.43832031 2.53320312 7.66601562 C2.70949091 5.82087013 2.85751413 3.97306305 3 2.125 C1.02 2.125 -0.96 2.125 -3 2.125 C-2.98839844 3.34058594 -2.97679687 4.55617188 -2.96484375 5.80859375 C-2.95546722 7.39322764 -2.94636687 8.97786318 -2.9375 10.5625 C-2.92912109 11.36494141 -2.92074219 12.16738281 -2.91210938 12.99414062 C-2.9034857 15.03795221 -2.9477185 17.08183902 -3 19.125 C-4 20.125 -4 20.125 -7.0625 20.1875 C-8.031875 20.166875 -9.00125 20.14625 -10 20.125 C-10 19.135 -10 18.145 -10 17.125 C-9.01 17.455 -8.02 17.785 -7 18.125 C-6.01 18.125 -5.02 18.125 -4 18.125 C-4.01740234 16.30162109 -4.01740234 16.30162109 -4.03515625 14.44140625 C-4.04453278 12.85677236 -4.05363313 11.27213682 -4.0625 9.6875 C-4.07087891 8.88505859 -4.07925781 8.08261719 -4.08789062 7.25585938 C-4.0965143 5.21204779 -4.0522815 3.16816098 -4 1.125 C-3 0.125 -3 0.125 0 0 Z " fill="#CE211D" transform="translate(346,110.875)"/>
<path d="M0 0 C2.84641045 -0.54505732 4.2458236 -0.72478326 7 0 C11.18158443 2.95999797 15.13925574 6.41776723 16.79296875 11.37890625 C17.0625 13.5625 17.0625 13.5625 17 17 C15 17 15 17 12.5625 14.6875 C11.716875 13.800625 10.87125 12.91375 10 12 C9.1646875 11.2265625 9.1646875 11.2265625 8.3125 10.4375 C6.79056443 8.77061818 6.00465951 7.00931902 5 5 C4.34 4.67 3.68 4.34 3 4 C3 3.34 3 2.68 3 2 C2.01 1.67 1.02 1.34 0 1 C0 0.67 0 0.34 0 0 Z " fill="#E6100F" transform="translate(78,29)"/>
<path d="M0 0 C0.99 0 1.98 0 3 0 C4.5625 2.8125 4.5625 2.8125 6 6 C5.67 6.99 5.34 7.98 5 9 C3.515 6.03 3.515 6.03 2 3 C1.97494385 4.145896 1.9498877 5.29179199 1.92407227 6.47241211 C1.83016894 10.70853598 1.72990725 14.94448928 1.62768555 19.18041992 C1.5842718 21.01664247 1.54260161 22.85290708 1.50268555 24.68920898 C1.44513831 27.32288311 1.38140002 29.95634421 1.31640625 32.58984375 C1.29969376 33.41588608 1.28298126 34.24192841 1.26576233 35.09300232 C1.11387171 40.88612829 1.11387171 40.88612829 0 42 C-1.85287502 42.07226502 -3.70833878 42.0838122 -5.5625 42.0625 C-6.57441406 42.05347656 -7.58632812 42.04445312 -8.62890625 42.03515625 C-9.41136719 42.02355469 -10.19382813 42.01195312 -11 42 C-11 41.34 -11 40.68 -11 40 C-7.7 40 -4.4 40 -1 40 C-1.00580078 39.22760986 -1.01160156 38.45521973 -1.01757812 37.65942383 C-1.05248701 29.32305635 -0.83698168 21.01641203 -0.5 12.6875 C-0.45230469 11.45837891 -0.40460938 10.22925781 -0.35546875 8.96289062 C-0.23921484 5.97516512 -0.12069607 2.98754877 0 0 Z " fill="#D01713" transform="translate(229,61)"/>
<path d="M0 0 C4.99873741 0.83841017 9.08653541 3.43818392 13.40625 5.96875 C14.23318359 6.44119141 15.06011719 6.91363281 15.91210938 7.40039062 C17.93696685 8.55912409 19.95532866 9.72779414 21.96875 10.90625 C18.96875 12.90625 18.96875 12.90625 16.96875 12.90625 C16.96875 11.91625 16.96875 10.92625 16.96875 9.90625 C15.64875 9.90625 14.32875 9.90625 12.96875 9.90625 C12.63875 10.56625 12.30875 11.22625 11.96875 11.90625 C12.95875 12.23625 13.94875 12.56625 14.96875 12.90625 C13.97875 13.40125 13.97875 13.40125 12.96875 13.90625 C10.1484375 12.47265625 10.1484375 12.47265625 6.84375 10.46875 C5.20019531 9.48068359 5.20019531 9.48068359 3.5234375 8.47265625 C2.68039063 7.95574219 1.83734375 7.43882813 0.96875 6.90625 C3.45939888 6.21917445 5.34761292 5.90625 7.96875 5.90625 C2.96990406 2.47132836 2.96990406 2.47132836 -2.96875 2.15625 C-4.4846875 2.5275 -4.4846875 2.5275 -6.03125 2.90625 C-4.1652367 0.1621128 -3.37303086 -0.10432054 0 0 Z " fill="#D91816" transform="translate(51.03125,43.09375)"/>
<path d="M0 0 C2.97 0.33 5.94 0.66 9 1 C8.34 2.32 7.68 3.64 7 5 C7.78309467 7.23470405 7.78309467 7.23470405 9 9 C9.33 6.69 9.66 4.38 10 2 C10.66 2.33 11.32 2.66 12 3 C12.23538888 4.88311102 12.46366851 6.7675003 12.6484375 8.65625 C13.23985369 12.59902463 14.62714345 16.26997466 16 20 C13.525 19.01 13.525 19.01 11 18 C11 16.35 11 14.7 11 13 C10.34 12.67 9.68 12.34 9 12 C9.33 14.31 9.66 16.62 10 19 C6.49842776 14.97464688 5.94773797 10.89761018 4.94140625 5.77734375 C3.86809777 2.61086106 2.82920648 1.67893362 0 0 Z " fill="#DD1A16" transform="translate(9,65)"/>
<path d="M0 0 C1.4540625 0.0309375 1.4540625 0.0309375 2.9375 0.0625 C2.9375 3.0325 2.9375 6.0025 2.9375 9.0625 C2.6075 9.0625 2.2775 9.0625 1.9375 9.0625 C1.9375 6.7525 1.9375 4.4425 1.9375 2.0625 C0.6175 2.0625 -0.7025 2.0625 -2.0625 2.0625 C-2.0625 9.3225 -2.0625 16.5825 -2.0625 24.0625 C-0.7425 24.0625 0.5775 24.0625 1.9375 24.0625 C1.9375 21.4225 1.9375 18.7825 1.9375 16.0625 C2.2675 16.0625 2.5975 16.0625 2.9375 16.0625 C2.96439216 17.54156892 2.98384621 19.02077483 3 20.5 C3.01160156 21.32371094 3.02320313 22.14742187 3.03515625 22.99609375 C2.9375 25.0625 2.9375 25.0625 1.9375 26.0625 C0.27132885 26.10313832 -1.39638095 26.105221 -3.0625 26.0625 C-4.33387774 23.51974451 -4.191925 21.71441799 -4.1953125 18.87109375 C-4.19660156 17.84435547 -4.19789063 16.81761719 -4.19921875 15.75976562 C-4.19535156 14.68404297 -4.19148438 13.60832031 -4.1875 12.5 C-4.19136719 11.42041016 -4.19523437 10.34082031 -4.19921875 9.22851562 C-4.19792969 8.20306641 -4.19664062 7.17761719 -4.1953125 6.12109375 C-4.19418457 5.17548584 -4.19305664 4.22987793 -4.19189453 3.25561523 C-3.98782305 -0.20320386 -3.54247109 0.07229533 0 0 Z " fill="#CE251E" transform="translate(297.0625,110.9375)"/>
<path d="M0 0 C0.99 0.33 1.98 0.66 3 1 C3 2.65 3 4.3 3 6 C4.32 6.66 5.64 7.32 7 8 C7 9.32 7 10.64 7 12 C7.61875 12.2475 8.2375 12.495 8.875 12.75 C11.35068687 14.20628639 11.95125002 15.37812506 13 18 C10 19 10 19 7.98046875 18.28515625 C3.85634312 15.60894849 1.47413542 11.22293924 0.4609375 6.47265625 C0.22161798 4.30852403 0.0554086 2.17604685 0 0 Z " fill="#EF0A08" transform="translate(18,77)"/>
<path d="M0 0 C0 3 0 3 -2.5 5.6875 C-3.325 6.450625 -4.15 7.21375 -5 8 C-3.68 8 -2.36 8 -1 8 C-1 7.01 -1 6.02 -1 5 C-0.01 5.33 0.98 5.66 2 6 C-1.08632611 9.2626876 -3.93483504 12.02235218 -8 14 C-8.66 13.67 -9.32 13.34 -10 13 C-9.34 11.68 -8.68 10.36 -8 9 C-9.051875 9.495 -10.10375 9.99 -11.1875 10.5 C-14.25452609 11.82779788 -16.62134936 12.30715006 -20 12 C-17.52637184 10.35091456 -15.52562869 9.34485547 -12.8125 8.25 C-7.98325502 6.15996611 -4.05803059 3.31719122 0 0 Z " fill="#D61714" transform="translate(86,91)"/>
<path d="M0 0 C0 3 0 3 -1 5 C-0.34 5.33 0.32 5.66 1 6 C0.01 7.485 0.01 7.485 -1 9 C-1.66 9 -2.32 9 -3 9 C-4.0479253 14.14814094 -4.14979065 19.08580424 -4.125 24.3125 C-4.12886719 25.11623047 -4.13273437 25.91996094 -4.13671875 26.74804688 C-4.12788687 32.23705959 -3.68823718 37.55418674 -3 43 C-8.26626758 35.10059863 -7.20097686 20.97434753 -5.63525391 11.88183594 C-4.52782936 7.40270965 -3.29196385 3.29196385 0 0 Z " fill="#C71818" transform="translate(284,41)"/>
<path d="M0 0 C0.93134766 0.00902344 1.86269531 0.01804687 2.82226562 0.02734375 C5.1109436 0.05081737 7.39908672 0.08365271 9.6875 0.125 C9.6875 0.785 9.6875 1.445 9.6875 2.125 C8.54152344 2.17398437 7.39554688 2.22296875 6.21484375 2.2734375 C4.68487465 2.34852801 3.15492782 2.42407306 1.625 2.5 C0.87283203 2.5309375 0.12066406 2.561875 -0.65429688 2.59375 C-5.50211281 2.84558459 -9.69558043 3.61668365 -14.3125 5.125 C-14.6425 4.135 -14.9725 3.145 -15.3125 2.125 C-10.36836159 -0.51881296 -5.44449976 -0.10004028 0 0 Z " fill="#F60501" transform="translate(57.3125,22.875)"/>
<path d="M0 0 C0.66 0 1.32 0 2 0 C2.92203999 10.85958212 2.92203999 10.85958212 -0.375 14.9375 C-5.54504125 16.45285692 -9.2369752 15.3815124 -14 13 C-16.625 10.3125 -16.625 10.3125 -18 8 C-17.67 7.34 -17.34 6.68 -17 6 C-16.071875 7.2065625 -16.071875 7.2065625 -15.125 8.4375 C-11.48670388 12.14919115 -6.93875305 11.90384729 -2 12 C-1.34 12 -0.68 12 0 12 C0 8.04 0 4.08 0 0 Z " fill="#DD1514" transform="translate(318,76)"/>
<path d="M0 0 C0.33 0.66 0.66 1.32 1 2 C2.65 2 4.3 2 6 2 C4.6045933 4.79081339 2.98580959 5.03903006 0.125 6.1875 C-0.75929688 6.55230469 -1.64359375 6.91710937 -2.5546875 7.29296875 C-5 8 -5 8 -8 7 C-7.6875 4.625 -7.6875 4.625 -7 2 C-4 0 -4 0 0 0 Z " fill="#E21611" transform="translate(42,25)"/>
<path d="M0 0 C4.03632523 3.63269271 5.77012202 6.64151165 6.30078125 12.0859375 C6.32365214 18.5050348 6.15425746 23.34862206 3 29 C2.67 28.34 2.34 27.68 2 27 C2.33 26.34 2.66 25.68 3 25 C3.124558 22.17571979 3.18516772 19.38689475 3.1875 16.5625 C3.19974609 15.78583984 3.21199219 15.00917969 3.22460938 14.20898438 C3.23474195 10.28767691 3.2225417 8.33381255 1 5 C0.34 5 -0.32 5 -1 5 C-0.67 3.35 -0.34 1.7 0 0 Z " fill="#D51413" transform="translate(167,67)"/>
<path d="M0 0 C0.66 0 1.32 0 2 0 C4.35582065 4.62816733 4.23521469 8.75534135 4.125 13.8125 C4.11597656 14.60076172 4.10695313 15.38902344 4.09765625 16.20117188 C4.07422504 18.13424666 4.03835838 20.0671638 4 22 C1.79086 18.68629 1.77518447 17.6553979 1.875 13.8125 C1.89304687 12.91144531 1.91109375 12.01039062 1.9296875 11.08203125 C1.95289062 10.39496094 1.97609375 9.70789062 2 9 C1.34 9 0.68 9 0 9 C0 6.03 0 3.06 0 0 Z " fill="#F80504" transform="translate(97,51)"/>
<path d="M0 0 C0.66 0.33 1.32 0.66 2 1 C2.484375 2.92578125 2.484375 2.92578125 2.75 5.3125 C2.89695313 6.48232422 2.89695313 6.48232422 3.046875 7.67578125 C2.99254189 10.36979817 2.47858344 11.76045179 1 14 C-4.88069154 17.5033907 -10.28366615 17.32792227 -17 17 C-17 16.67 -17 16.34 -17 16 C-16.34773437 15.97421875 -15.69546875 15.9484375 -15.0234375 15.921875 C-8.66488739 15.50922573 -4.61467679 14.61467679 0 10 C0.07205511 8.31391034 0.08386068 6.62499341 0.0625 4.9375 C0.05347656 4.01839844 0.04445312 3.09929688 0.03515625 2.15234375 C0.02355469 1.44207031 0.01195312 0.73179688 0 0 Z " fill="#E41012" transform="translate(147,38)"/>
<path d="M0 0 C3.91939465 3.80411834 7.49102731 7.81576108 11 12 C10.01 12.66 9.02 13.32 8 14 C8.33 14.66 8.66 15.32 9 16 C5.63408134 14.55746343 3.48952921 12.66735273 1 10 C2.32 10 3.64 10 5 10 C3.63016497 6.83884224 3.0109362 6.0072908 0 4 C0 2.68 0 1.36 0 0 Z " fill="#DA1413" transform="translate(25,85)"/>
<path d="M0 0 C1 3 1 3 0.25 5 C-0.98548635 6.97677816 -2.28039676 8.43672433 -4 10 C-4.99 9.34 -5.98 8.68 -7 8 C-7 8.99 -7 9.98 -7 11 C-8.32 11 -9.64 11 -11 11 C-9.91931197 7.7579359 -9.17869541 7.04402934 -6.625 4.9375 C-6.01914063 4.43089844 -5.41328125 3.92429687 -4.7890625 3.40234375 C-3.24789069 2.19430733 -1.62932413 1.08621609 0 0 Z " fill="#F40503" transform="translate(92,88)"/>
<path d="M0 0 C1 3 1 3 0.4375 4.9375 C-0.1280306 7.60357285 0.61738438 8.72275075 2 11 C0.35 12.98 -1.3 14.96 -3 17 C-3 15.33333333 -3 13.66666667 -3 12 C-4.32 12.33 -5.64 12.66 -7 13 C-3.535 6.565 -3.535 6.565 0 0 Z " fill="#DD1616" transform="translate(94,78)"/>
<path d="M0 0 C-0.33 1.65 -0.66 3.3 -1 5 C-0.236875 4.484375 0.52625 3.96875 1.3125 3.4375 C2.199375 2.963125 3.08625 2.48875 4 2 C4.99 2.33 5.98 2.66 7 3 C5.37829621 4.00533667 3.75252763 5.00411907 2.125 6 C1.22007813 6.556875 0.31515625 7.11375 -0.6171875 7.6875 C-3 9 -3 9 -5 9 C-4.67 8.01 -4.34 7.02 -4 6 C-5.65 6 -7.3 6 -9 6 C-9 5.34 -9 4.68 -9 4 C-2.25 0 -2.25 0 0 0 Z " fill="#DD1714" transform="translate(60,76)"/>
<path d="M0 0 C0.33 0 0.66 0 1 0 C1.85696261 10.70251085 1.85696261 10.70251085 -0.8125 14.6875 C-5.42477543 18.0336606 -9.48252673 17.52179257 -15 17 C-15 16.67 -15 16.34 -15 16 C-11.7 16 -8.4 16 -5 16 C-5.33 15.01 -5.66 14.02 -6 13 C-5.195625 12.71125 -4.39125 12.4225 -3.5625 12.125 C-0.4648498 9.55621691 -0.54951905 8.69049191 -0.1875 4.8125 C-0.1026414 3.20936059 -0.03312469 1.60504196 0 0 Z " fill="#E31816" transform="translate(348,119)"/>
<path d="M0 0 C2.35716404 2.15454249 3.78966144 4.19719874 5.1875 7.0625 C5.53167969 7.75472656 5.87585938 8.44695313 6.23046875 9.16015625 C7 11 7 11 7 13 C6.34 13 5.68 13 5 13 C5 12.34 5 11.68 5 11 C4.34 11 3.68 11 3 11 C3 9.35 3 7.7 3 6 C2.01 6.33 1.02 6.66 0 7 C-0.33 6.34 -0.66 5.68 -1 5 C-1.99 4.67 -2.98 4.34 -4 4 C-4 3.34 -4 2.68 -4 2 C-2.68 2 -1.36 2 0 2 C0 1.34 0 0.68 0 0 Z " fill="#E61110" transform="translate(234,29)"/>
<path d="M0 0 C-0.99 1.485 -0.99 1.485 -2 3 C-5.2578125 3.29296875 -5.2578125 3.29296875 -9.125 3.1875 C-11.04699219 3.14689453 -11.04699219 3.14689453 -13.0078125 3.10546875 C-13.99523437 3.07066406 -14.98265625 3.03585938 -16 3 C-16 2.01 -16 1.02 -16 0 C-15.11248047 0.01740234 -15.11248047 0.01740234 -14.20703125 0.03515625 C-9.91593556 0.08415734 -3.63248005 -1.81624003 0 0 Z " fill="#DC1112" transform="translate(147,90)"/>
<path d="M0 0 C2.64 0.99 5.28 1.98 8 3 C7.67 4.98 7.34 6.96 7 9 C5.02 9 3.04 9 1 9 C-0.4783226 6.04335481 -0.06032783 3.25770263 0 0 Z M1 4 C1.33 5.32 1.66 6.64 2 8 C3.65 7.67 5.3 7.34 7 7 C7 6.01 7 5.02 7 4 C5.02 4 3.04 4 1 4 Z " fill="#DC1616" transform="translate(368,123)"/>
<path d="M0 0 C1.32 0.66 2.64 1.32 4 2 C3.01 2 2.02 2 1 2 C1 10.91 1 19.82 1 29 C0.67 29 0.34 29 0 29 C-0.16729064 25.03092526 -0.32788226 21.06164279 -0.48217773 17.09204102 C-0.53565802 15.74072921 -0.59099194 14.38948948 -0.64819336 13.03833008 C-0.72993571 11.09997011 -0.80453323 9.16131296 -0.87890625 7.22265625 C-0.9260376 6.05484619 -0.97316895 4.88703613 -1.02172852 3.68383789 C-1 1 -1 1 0 0 Z " fill="#FA110F" transform="translate(228,59)"/>
<path d="M0 0 C1 3 1 3 0 6 C0.99 6.33 1.98 6.66 3 7 C1.35 8.32 -0.3 9.64 -2 11 C-2.66 10.67 -3.32 10.34 -4 10 C-3.01 9.01 -2.02 8.02 -1 7 C-2.32 6.34 -3.64 5.68 -5 5 C-3.35 3.35 -1.7 1.7 0 0 Z " fill="#DD1713" transform="translate(76,64)"/>
<path d="M0 0 C1.32 0 2.64 0 4 0 C4 1.32 4 2.64 4 4 C3.01 4.495 3.01 4.495 2 5 C1.34786708 7.02463255 1.34786708 7.02463255 1 9 C0.34 8.67 -0.32 8.34 -1 8 C-1.04241723 5.66705225 -1.04092937 3.33297433 -1 1 C-0.67 0.67 -0.34 0.34 0 0 Z " fill="#D82725" transform="translate(10,39)"/>
<path d="M0 0 C2.71097227 0.37392721 3.82000467 0.81357627 5.75 2.8125 C7 5 7 5 7 9 C6.34 9 5.68 9 5 9 C3.7109375 7.28515625 3.7109375 7.28515625 2.375 5.0625 C1.92898437 4.33160156 1.48296875 3.60070313 1.0234375 2.84765625 C0 1 0 1 0 0 Z " fill="#F60506" transform="translate(88,37)"/>
<path d="M0 0 C0.66 0.33 1.32 0.66 2 1 C1.67 1.99 1.34 2.98 1 4 C0.360625 4.12375 -0.27875 4.2475 -0.9375 4.375 C-1.9584375 4.684375 -1.9584375 4.684375 -3 5 C-4.29660434 7.49034386 -4.29660434 7.49034386 -5 10 C-5.66 9.67 -6.32 9.34 -7 9 C-5.64978174 4.58110387 -3.73884332 2.65654657 0 0 Z " fill="#DE1112" transform="translate(292,32)"/>
<path d="M0 0 C2.375 -0.1875 2.375 -0.1875 5 0 C7.31282587 3.46923881 7.42478586 4.92205575 7 9 C6.01 9.99 5.02 10.98 4 12 C4 8.7 4 5.4 4 2 C2.68 1.34 1.36 0.68 0 0 Z " fill="#D52216" transform="translate(375,112)"/>
<path d="M0 0 C0.33 0 0.66 0 1 0 C1.04898437 1.02480469 1.09796875 2.04960938 1.1484375 3.10546875 C1.22351071 4.4661706 1.29905655 5.82684644 1.375 7.1875 C1.42140625 8.19780273 1.42140625 8.19780273 1.46875 9.22851562 C1.70103922 13.19678975 2.28387476 16.40729879 4 20 C3.01 19.67 2.02 19.34 1 19 C-1.05794248 14.52563474 -1.11929469 10.96908797 -0.625 6.125 C-0.51414062 4.97257812 -0.40328125 3.82015625 -0.2890625 2.6328125 C-0.19367188 1.76398438 -0.09828125 0.89515625 0 0 Z " fill="#E91916" transform="translate(329,115)"/>
<path d="M0 0 C0 3 0 3 -1 5 C-0.34 5.33 0.32 5.66 1 6 C0.01 7.485 0.01 7.485 -1 9 C-1.66 9 -2.32 9 -3 9 C-3.33 10.32 -3.66 11.64 -4 13 C-3.40546697 3.40546697 -3.40546697 3.40546697 0 0 Z " fill="#DE1112" transform="translate(284,41)"/>
<path d="M0 0 C0.99 0.33 1.98 0.66 3 1 C5.00875442 0.72428861 7.01178687 0.39764263 9 0 C5.63576723 2.96052484 2.30840713 3.92289822 -2 5 C-2 4.01 -2 3.02 -2 2 C-1.34 2 -0.68 2 0 2 C0 1.34 0 0.68 0 0 Z " fill="#DD1C19" transform="translate(326,98)"/>
<path d="M0 0 C-0.33 2.31 -0.66 4.62 -1 7 C-2.32 6.67 -3.64 6.34 -5 6 C-4.625 3.5625 -4.625 3.5625 -4 1 C-2 0 -2 0 0 0 Z " fill="#F30805" transform="translate(98,80)"/>
<path d="M0 0 C2.475 0.99 2.475 0.99 5 2 C4.67 4.64 4.34 7.28 4 10 C1.04816899 7.04816899 0.91336012 4.04488053 0 0 Z " fill="#E60907" transform="translate(233,65)"/>
<path d="M0 0 C1.65 0 3.3 0 5 0 C4.25 1.9375 4.25 1.9375 3 4 C0.875 4.75 0.875 4.75 -1 5 C-0.67 3.35 -0.34 1.7 0 0 Z " fill="#F50404" transform="translate(60,76)"/>
<path d="M0 0 C2.97 0.33 5.94 0.66 9 1 C8.67 1.99 8.34 2.98 8 4 C7.34 4 6.68 4 6 4 C6 3.34 6 2.68 6 2 C3.03 1.505 3.03 1.505 0 1 C0 0.67 0 0.34 0 0 Z " fill="#E60F09" transform="translate(9,65)"/>
<path d="M0 0 C0.66 0 1.32 0 2 0 C1.3125 2.375 1.3125 2.375 0 5 C-2.625 6.3125 -2.625 6.3125 -5 7 C-4.34 5.68 -3.68 4.36 -3 3 C-2.01 3 -1.02 3 0 3 C0 2.01 0 1.02 0 0 Z " fill="#CF0F0F" transform="translate(165,52)"/>
<path d="M0 0 C1.5 1.3125 1.5 1.3125 3 3 C3 6 3 6 2 8 C0.68 6.35 -0.64 4.7 -2 3 C-1.34 3 -0.68 3 0 3 C0 2.01 0 1.02 0 0 Z " fill="#DC1108" transform="translate(87,34)"/>
</svg>
