<?xml version="1.0" encoding="UTF-8"?>
<svg version="1.1" xmlns="http://www.w3.org/2000/svg" width="256" height="256">
<path d="M0 0 C16.01499386 15.24249082 27.61647099 34.31687876 33.39453125 55.70703125 C33.71292969 56.84140625 34.03132812 57.97578125 34.359375 59.14453125 C41.56708644 89.96829262 35.62178373 122.69850187 19.64941406 149.70214844 C3.76593766 175.07862863 -21.75306781 193.91321532 -50.60546875 201.70703125 C-51.73984375 202.02542969 -52.87421875 202.34382812 -54.04296875 202.671875 C-85.73677252 210.08303386 -119.15856444 203.5905567 -146.60546875 186.70703125 C-173.61419275 169.17765102 -191.46779935 141.92082012 -198.21557617 110.62402344 C-199.12911337 106.13241789 -199.729981 101.92093781 -199.66796875 97.33203125 C-199.65894531 96.45804688 -199.64992187 95.5840625 -199.640625 94.68359375 C-199.62902344 94.03132813 -199.61742187 93.3790625 -199.60546875 92.70703125 C-200.80171875 92.78953125 -201.99796875 92.87203125 -203.23046875 92.95703125 C-207.7570348 92.94106453 -210.10401603 91.66381355 -213.60546875 88.70703125 C-218.77997211 83.22485471 -219.76986169 79.69360467 -219.80859375 72.26953125 C-219.81429382 71.43365479 -219.8199939 70.59777832 -219.8258667 69.73657227 C-219.83531818 67.96794909 -219.84185127 66.1993083 -219.84570312 64.43066406 C-219.85543018 61.71778964 -219.88646011 59.00566595 -219.91796875 56.29296875 C-219.92449659 54.57682743 -219.92974792 52.86068068 -219.93359375 51.14453125 C-219.94594055 50.32992432 -219.95828735 49.51531738 -219.9710083 48.67602539 C-219.96191406 46.390625 -219.96191406 46.390625 -219.60546875 42.70703125 C-216.60546875 40.70703125 -216.60546875 40.70703125 -212.60546875 40.70703125 C-212.62641602 40.12211914 -212.64736328 39.53720703 -212.66894531 38.93457031 C-212.7522699 36.2755666 -212.80417772 33.6168377 -212.85546875 30.95703125 C-212.90574219 29.57644531 -212.90574219 29.57644531 -212.95703125 28.16796875 C-213.05581097 21.35216818 -213.05581097 21.35216818 -210.78125 18.09375 C-207.84318659 16.22119612 -206.02408598 16.19787549 -202.60546875 16.70703125 C-200.94018555 17.92895508 -200.94018555 17.92895508 -199.60546875 19.70703125 C-199.26489258 21.9753418 -199.26489258 21.9753418 -199.3125 24.59375 C-199.32216797 25.53154297 -199.33183594 26.46933594 -199.34179688 27.43554688 C-199.36693359 28.41201172 -199.39207031 29.38847656 -199.41796875 30.39453125 C-199.43827148 31.87663086 -199.43827148 31.87663086 -199.45898438 33.38867188 C-199.49434214 35.82835742 -199.54814913 38.26776288 -199.60546875 40.70703125 C-195.64546875 40.70703125 -191.68546875 40.70703125 -187.60546875 40.70703125 C-187.64027344 39.22589844 -187.67507812 37.74476562 -187.7109375 36.21875 C-187.73907366 34.27735507 -187.766374 32.3359479 -187.79296875 30.39453125 C-187.81810547 29.41806641 -187.84324219 28.44160156 -187.86914062 27.43554688 C-187.87880859 26.49775391 -187.88847656 25.55996094 -187.8984375 24.59375 C-187.91414795 23.72967529 -187.9298584 22.86560059 -187.94604492 21.9753418 C-187.60546875 19.70703125 -187.60546875 19.70703125 -186.2746582 17.92114258 C-183.71597604 16.06004467 -181.67687569 16.38709303 -178.60546875 16.70703125 C-175.60546875 18.70703125 -175.60546875 18.70703125 -174.60546875 21.70703125 C-174.52480655 23.18826672 -174.49785682 24.67285329 -174.5078125 26.15625 C-174.51103516 27.00380859 -174.51425781 27.85136719 -174.51757812 28.72460938 C-174.53014648 30.0462207 -174.53014648 30.0462207 -174.54296875 31.39453125 C-174.54748047 32.28720703 -174.55199219 33.17988281 -174.55664062 34.09960938 C-174.56841892 36.30215112 -174.58486711 38.50455724 -174.60546875 40.70703125 C-173.15140625 40.89265625 -173.15140625 40.89265625 -171.66796875 41.08203125 C-170.15203125 41.39140625 -170.15203125 41.39140625 -168.60546875 41.70703125 C-167.04674816 44.82447243 -167.4215286 48.14322807 -167.40234375 51.56640625 C-167.39664368 52.34840393 -167.3909436 53.13040161 -167.3850708 53.93609619 C-167.37561627 55.59377692 -167.36908502 57.25147647 -167.36523438 58.90917969 C-167.35555978 61.43328184 -167.32455464 63.95655886 -167.29296875 66.48046875 C-167.2864354 68.09244309 -167.28118623 69.70442325 -167.27734375 71.31640625 C-167.26499695 72.06662048 -167.25265015 72.81683472 -167.2399292 73.58978271 C-167.26368801 79.2410307 -168.56170687 83.18144986 -172.11328125 87.5703125 C-172.64695313 88.04855469 -173.180625 88.52679688 -173.73046875 89.01953125 C-174.50777344 89.75623047 -174.50777344 89.75623047 -175.30078125 90.5078125 C-178.87259456 92.36636621 -182.63113582 92.43752213 -186.60546875 92.70703125 C-182.5120623 123.62389782 -170.61366459 150.75873958 -145.375 170.28125 C-120.73369029 187.95936379 -91.8089186 194.74500781 -61.78125 189.90234375 C-35.25823789 184.63608551 -11.60177719 169.26699224 4.20703125 147.39453125 C20.21042432 122.90493526 26.76987118 94.30029637 21.31835938 65.17578125 C14.82557438 36.38849356 -2.1812695 12.82409404 -26.99780273 -3.04833984 C-50.88172656 -17.62996857 -79.82277195 -21.69198385 -106.953125 -15.32421875 C-117.19237396 -12.67080447 -126.32812341 -8.30016144 -135.60546875 -3.29296875 C-138.40416902 -1.89361862 -140.51045667 -2.0403147 -143.60546875 -2.29296875 C-145.48046875 -3.35546875 -145.48046875 -3.35546875 -146.60546875 -5.29296875 C-147.35546875 -8.60546875 -147.35546875 -8.60546875 -146.60546875 -12.29296875 C-144.00931401 -14.98452025 -140.89567353 -16.56659962 -137.60546875 -18.29296875 C-136.52652344 -18.87175781 -135.44757813 -19.45054688 -134.3359375 -20.046875 C-90.35931557 -42.59570816 -35.76629861 -33.08932357 0 0 Z " fill="#FF0000" transform="translate(219.60546875,41.29296875)"/>
<path d="M0 0 C0.70640625 -0.02578125 1.4128125 -0.0515625 2.140625 -0.078125 C10.1223631 0.92556662 16.86197028 5.45345667 23.625 9.5 C25.75344855 10.75858685 27.88237212 12.01637066 30.01171875 13.2734375 C31.11306152 13.92538086 32.2144043 14.57732422 33.34912109 15.24902344 C37.90234863 17.92800785 42.48207926 20.55956553 47.06420898 23.1887207 C52.30116066 26.19474688 57.52583206 29.22183186 62.75 32.25 C63.51602539 32.69134277 64.28205078 33.13268555 65.07128906 33.58740234 C73.10134717 38.23201267 79.63244006 42.04450113 82.75 51.25 C83.63732651 58.73036879 83.21656669 65.06845325 78.75 71.25 C73.50894376 76.76246808 66.93218207 80.16760795 60.3125 83.75 C58.07708512 84.97988264 55.84273746 86.21170676 53.609375 87.4453125 C52.47306641 88.07211914 51.33675781 88.69892578 50.16601562 89.34472656 C44.75417832 92.36316412 39.40697702 95.48927286 34.0625 98.625 C33.06645752 99.20789795 32.07041504 99.7907959 31.04418945 100.39135742 C27.49960147 102.46598479 23.95610564 104.54246844 20.41357422 106.62060547 C18.44519864 107.77283629 16.47333589 108.91879241 14.5 110.0625 C13.46359375 110.66707031 12.4271875 111.27164063 11.359375 111.89453125 C5.70332997 114.8326265 -0.47108497 115.28174325 -6.625 113.6015625 C-12.14130591 111.42113077 -16.16544624 108.36732526 -19.25 103.25 C-21.13393704 98.56567406 -21.54193727 94.32645901 -21.5246582 89.33618164 C-21.52976913 88.56626389 -21.53488007 87.79634613 -21.54014587 87.00309753 C-21.55398301 84.47203681 -21.55308964 81.94125017 -21.55078125 79.41015625 C-21.55467126 77.64188029 -21.55900655 75.87360526 -21.56376648 74.10533142 C-21.57121593 70.40425585 -21.57094656 66.70327569 -21.56567383 63.00219727 C-21.55987922 58.27003312 -21.57681613 53.53826038 -21.6000185 48.80616093 C-21.61478197 45.15577427 -21.61562402 41.50548134 -21.61250877 37.85507011 C-21.61302062 36.11083641 -21.61823254 34.36659726 -21.62832069 32.62239265 C-21.64071949 30.17907716 -21.63387339 27.73651717 -21.62231445 25.29321289 C-21.62995819 24.57974701 -21.63760193 23.86628113 -21.64547729 23.13119507 C-21.56387635 15.28924459 -18.56143244 9.81435779 -13.25 4.25 C-8.97584769 1.22681909 -5.19402667 0.1121013 0 0 Z " fill="#FF0000" transform="translate(117.25,70.75)"/>
</svg>
